<?xml version="1.0" standalone="no"?>
<!DOCTYPE svg PUBLIC "-//W3C//DTD SVG 20010904//EN"
 "http://www.w3.org/TR/2001/REC-SVG-20010904/DTD/svg10.dtd">
<svg version="1.0" xmlns="http://www.w3.org/2000/svg"
 width="700.000000pt" height="700.000000pt" viewBox="0 0 700.000000 700.000000"
 preserveAspectRatio="xMidYMid meet">
<metadata>
Created by potrace 1.14, written by Peter Selinger 2001-2017
</metadata>
<g transform="translate(0.000000,700.000000) scale(0.100000,-0.100000)"
fill="#000000" stroke="none">
<path d="M130 6966 c-48 -15 -62 -25 -96 -70 l-29 -39 0 -1931 c-1 -1062 3
-1950 8 -1972 9 -45 55 -100 100 -119 67 -28 156 4 199 73 l23 37 2 875 c1
481 2 882 2 891 1 15 95 16 1069 13 587 -2 1078 -3 1092 -3 l26 -1 -1 -877 c0
-859 0 -879 20 -917 11 -22 36 -53 56 -69 68 -53 176 -32 227 46 l27 41 0
1956 0 1956 -28 43 c-82 124 -265 86 -296 -61 -4 -18 -6 -423 -6 -899 l1 -865
-1090 3 c-599 2 -1092 5 -1094 8 -3 3 -6 400 -6 882 -2 951 1 909 -56 961 -45
42 -97 55 -150 38z"/>
<path d="M5235 6437 c-42 -23 -57 -50 -196 -344 -16 -34 -42 -71 -57 -82 -15
-11 -84 -38 -152 -61 -69 -23 -152 -55 -185 -70 -160 -72 -128 -137 120 -247
150 -65 202 -95 219 -124 9 -15 37 -88 62 -161 78 -227 119 -287 178 -260 34
15 82 92 135 217 65 150 96 200 136 219 19 9 93 37 166 62 147 50 199 74 229
106 48 52 5 104 -145 173 -274 127 -260 118 -288 187 -14 35 -43 112 -63 171
-59 173 -110 242 -159 214z"/>
<path d="M3951 3544 c-78 -14 -125 -32 -185 -74 -89 -61 -157 -155 -187 -260
-20 -68 -22 -2759 -2 -2844 14 -63 59 -155 96 -196 70 -80 183 -143 279 -158
29 -4 636 -7 1348 -6 1263 1 1296 2 1356 21 116 38 218 123 270 225 56 111 54
47 54 1528 0 751 -2 1377 -5 1391 -37 192 -183 334 -385 376 -54 12 -2572 8
-2639 -3z m2665 -251 c51 -27 98 -80 115 -130 19 -56 19 -2710 0 -2766 -17
-50 -64 -103 -115 -130 l-41 -22 -1300 0 -1300 0 -48 24 c-54 26 -102 84 -117
140 -6 22 -8 550 -7 1391 2 1239 3 1358 19 1385 34 62 84 105 141 119 31 8
423 11 1328 11 l1284 -1 41 -21z"/>
<path d="M3953 3175 c-17 -7 -39 -25 -48 -39 -36 -54 -27 -83 130 -411 81
-170 162 -341 180 -380 18 -38 68 -142 110 -230 42 -88 91 -189 107 -225 17
-36 66 -139 109 -228 44 -90 79 -165 79 -167 0 -1 43 -92 96 -201 53 -110 109
-228 126 -264 17 -36 55 -117 85 -180 31 -63 72 -151 93 -195 112 -240 162
-334 185 -349 36 -24 94 -27 134 -8 42 20 48 32 284 532 30 63 83 174 117 245
34 72 99 209 145 305 90 190 156 330 271 568 41 85 74 155 74 157 0 2 39 83
86 182 48 98 101 210 119 248 37 80 132 279 193 405 22 47 43 99 46 115 12 72
-64 145 -137 131 -32 -6 -87 -43 -87 -59 0 -2 -36 -81 -81 -173 -45 -93 -94
-196 -109 -229 -15 -33 -64 -136 -109 -229 -45 -93 -81 -170 -81 -171 0 -2
-35 -77 -79 -167 -43 -89 -98 -203 -121 -253 -24 -49 -80 -168 -126 -264 -46
-95 -84 -174 -84 -176 0 -1 -34 -74 -76 -161 -74 -153 -147 -306 -249 -522
-27 -56 -51 -102 -55 -102 -3 0 -30 51 -60 112 -91 191 -176 369 -218 458 -39
84 -106 223 -224 470 -33 69 -74 154 -91 190 -16 36 -65 139 -108 228 -44 90
-79 165 -79 167 0 1 -43 92 -96 201 -53 110 -105 219 -116 244 -11 25 -60 127
-109 228 -81 167 -92 184 -124 198 -42 17 -61 17 -102 -1z"/>
<path d="M1291 1886 c-20 -24 -2 -67 69 -161 84 -112 103 -148 95 -184 -3 -15
-39 -71 -80 -125 -99 -131 -115 -175 -70 -192 29 -11 64 6 162 80 87 66 125
87 158 91 13 2 79 -31 96 -47 16 -15 112 -87 149 -111 36 -25 79 -22 89 6 10
25 -21 91 -70 148 -16 18 -46 58 -66 87 -52 78 -46 105 55 238 85 112 99 145
74 170 -26 26 -70 8 -169 -67 -127 -97 -141 -103 -191 -86 -36 13 -100 56
-142 96 -30 29 -104 71 -126 71 -12 0 -27 -6 -33 -14z"/>
</g>
</svg>
