<?xml version="1.0" standalone="no"?>
<!DOCTYPE svg PUBLIC "-//W3C//DTD SVG 20010904//EN"
 "http://www.w3.org/TR/2001/REC-SVG-20010904/DTD/svg10.dtd">
<svg version="1.0" xmlns="http://www.w3.org/2000/svg"
 width="512.000000pt" height="512.000000pt" viewBox="0 0 512.000000 512.000000"
 preserveAspectRatio="xMidYMid meet">
<metadata>
Created by potrace 1.14, written by Peter Selinger 2001-2017
</metadata>
<g transform="translate(0.000000,512.000000) scale(0.100000,-0.100000)"
fill="#000000" stroke="none">
<path d="M1230 5033 c-24 -49 -44 -91 -44 -95 -1 -4 -7 -13 -13 -19 -7 -7 -13
-21 -13 -30 0 -10 -4 -19 -8 -21 -9 -4 -112 -212 -112 -227 0 -5 -4 -11 -8
-13 -8 -3 -76 -139 -81 -163 -1 -5 -8 -17 -16 -25 -7 -8 -16 -26 -20 -40 -4
-14 -10 -27 -14 -30 -10 -8 -101 -195 -101 -208 0 -7 -4 -12 -10 -12 -5 0 -13
-12 -16 -27 -4 -16 -10 -30 -14 -33 -9 -7 -55 -104 -53 -112 1 -3 -4 -12 -12
-18 -8 -7 -15 -21 -15 -30 0 -10 -3 -20 -8 -22 -7 -3 -125 -236 -126 -250 -1
-4 -7 -13 -13 -19 -7 -7 -13 -21 -13 -30 0 -10 -4 -19 -8 -21 -9 -4 -112 -212
-112 -227 0 -5 -4 -11 -8 -13 -9 -4 -166 -320 -164 -330 1 -3 -5 -12 -13 -18
-8 -7 -15 -19 -15 -27 0 -7 -5 -19 -10 -26 -13 -15 -190 -372 -190 -382 0 -12
394 -799 403 -806 5 -3 8 -9 7 -13 -1 -9 383 -780 393 -787 5 -3 9 -10 9 -15
-1 -13 102 -218 111 -222 4 -2 7 -9 7 -15 0 -16 102 -220 115 -229 6 -4 7 -8
4 -8 -3 0 46 -104 111 -231 l116 -232 1281 0 c705 1 1286 4 1292 7 6 4 9 11 6
16 -3 5 1 14 7 22 15 15 183 351 179 357 -1 2 1 7 6 10 10 7 144 278 143 287
-1 4 2 10 7 13 11 8 57 104 55 114 -1 4 3 7 9 7 5 0 8 4 4 9 -3 5 -1 12 4 16
10 6 62 110 67 134 1 8 6 17 11 20 11 8 183 355 183 369 0 6 8 16 18 21 9 6
14 11 10 11 -3 0 20 53 52 118 32 64 58 121 58 126 0 5 4 12 9 15 10 7 136
261 139 280 2 8 6 17 11 20 11 8 228 444 225 454 -1 4 3 7 9 7 5 0 8 4 4 9 -3
5 -1 12 5 16 5 3 19 27 30 53 l21 47 -28 60 c-15 33 -31 62 -36 63 -4 2 -5 8
-1 13 3 5 0 9 -5 9 -6 0 -11 5 -11 11 0 14 -53 123 -62 127 -5 2 -8 8 -8 13 0
5 -52 113 -115 239 -63 127 -111 230 -108 230 4 0 -2 6 -13 14 -10 8 -16 18
-12 21 4 4 0 14 -8 22 -8 8 -12 18 -9 23 3 4 -1 10 -9 13 -7 3 -17 18 -20 33
-4 15 -16 40 -27 55 -10 15 -19 34 -19 43 0 9 -5 16 -11 16 -5 0 -7 5 -4 10 3
6 1 10 -5 10 -6 0 -9 4 -6 9 3 5 -1 14 -10 21 -8 7 -13 19 -10 27 3 7 2 13 -2
13 -4 0 -23 33 -42 73 -19 39 -38 74 -42 75 -5 2 -8 8 -8 13 0 6 -61 131 -134
278 -74 148 -132 271 -129 275 4 3 1 6 -6 6 -6 0 -16 12 -22 28 -12 32 -92
195 -99 202 -3 3 -16 30 -30 60 -14 30 -28 57 -32 58 -5 2 -8 12 -8 23 0 10
-5 19 -11 19 -5 0 -7 5 -4 10 3 6 1 10 -4 10 -6 0 -11 5 -11 10 0 6 -35 80
-77 165 l-78 155 -1286 0 -1286 0 -43 -87z"/>
</g>
</svg>
